# xmcd
#
# Track frame offsets:
# 150
# 5835
# 22402
# 41505
# 61835
# 84547
# 100367
# 108735
# 128445
# 148110
# 166032
# 190745
# 196710
# 212312
# 230412
# 232665
# 252520
# 270650
#
# Disc length: 3875 seconds
#
# Revision: 0
# Processed by: cddbd v1.4PL0 Copyright (c) Steve Scherf et al.
# Submitted via: Axialis_AX_CDPlayer 2.6
#
DISCID=ee0f2112
DTITLE=Meet The Girl Next Door - Li'l Mo
DYEAR=1900
DGENRE=
TTITLE0=Intro
TTITLE1=Why Do We Fall In Love
TTITLE2=Doing Me Wrong
TTITLE3=4ever
TTITLE4=Ten Commandments
TTITLE5=Ain't No Reason
TTITLE6=Heaven
TTITLE7=Brand Nu
TTITLE8=1st Time
TTITLE9=So Lost Without You
TTITLE10=Shoulda Known
TTITLE11=Disturbing Phone Call
TTITLE12=Get Over It
TTITLE13=It's Your World
TTITLE14=Letter From My #1 Fan
TTITLE15=Letter To My #1 Fan
TTITLE16=Answer to 50 Cent 21 Questions
TTITLE17=I'm Ready To Be With You
EXTD=
EXTT0=
EXTT1=
EXTT2=
EXTT3=
EXTT4=
EXTT5=
EXTT6=
EXTT7=
EXTT8=
EXTT9=
EXTT10=
EXTT11=
EXTT12=
EXTT13=
EXTT14=
EXTT15=
EXTT16=
EXTT17=
PLAYORDER=
